{
    "asset": {
        "generator": "Khronos glTF Blender I/O v0.9.36",
        "version": "2.0"
    },
    "scene": 0,
    "scenes": [{
        "name": "Scene",
        "nodes": [
            0,
            1,
            2
        ]
    }],
    "nodes": [{
            "name": "Light",
            "rotation": [
                0.16907577216625214,
                0.7558802962303162, -0.27217137813568115,
                0.570947527885437
            ],
            "translation": [
                4.0732502937316895,
                5.903861999511719, -1.0054539442062378
            ]
        },
        {
            "name": "Camera",
            "rotation": [
                0.483536034822464,
                0.33687159419059753, -0.20870360732078552,
                0.7804827094078064
            ],
            "translation": [
                7.355896472930908,
                4.958309173583984,
                6.925790786743164
            ]
        },
        {
            "mesh": 0,
            "name": "Curve",
            "rotation": [-0.7372772693634033,
                0,
                0, -0.6755902767181396
            ],
            "translation": [
                0,
                1.351704478263855,
                0
            ]
        }
    ],
    "animations": [{
            "channels": [{
                    "sampler": 0,
                    "target": {
                        "node": 0,
                        "path": "translation"
                    }
                },
                {
                    "sampler": 1,
                    "target": {
                        "node": 0,
                        "path": "rotation"
                    }
                },
                {
                    "sampler": 2,
                    "target": {
                        "node": 0,
                        "path": "scale"
                    }
                }
            ],
            "name": "LightAction",
            "samplers": [{
                    "input": 3,
                    "interpolation": "CUBICSPLINE",
                    "output": 4
                },
                {
                    "input": 3,
                    "interpolation": "CUBICSPLINE",
                    "output": 5
                },
                {
                    "input": 3,
                    "interpolation": "CUBICSPLINE",
                    "output": 6
                }
            ]
        },
        {
            "channels": [{
                    "sampler": 0,
                    "target": {
                        "node": 1,
                        "path": "translation"
                    }
                },
                {
                    "sampler": 1,
                    "target": {
                        "node": 1,
                        "path": "rotation"
                    }
                },
                {
                    "sampler": 2,
                    "target": {
                        "node": 1,
                        "path": "scale"
                    }
                }
            ],
            "name": "CameraAction",
            "samplers": [{
                    "input": 3,
                    "interpolation": "CUBICSPLINE",
                    "output": 7
                },
                {
                    "input": 3,
                    "interpolation": "CUBICSPLINE",
                    "output": 8
                },
                {
                    "input": 3,
                    "interpolation": "CUBICSPLINE",
                    "output": 9
                }
            ]
        },
        {
            "channels": [{
                    "sampler": 0,
                    "target": {
                        "node": 2,
                        "path": "translation"
                    }
                },
                {
                    "sampler": 1,
                    "target": {
                        "node": 2,
                        "path": "rotation"
                    }
                },
                {
                    "sampler": 2,
                    "target": {
                        "node": 2,
                        "path": "scale"
                    }
                }
            ],
            "name": "CurveAction.001",
            "samplers": [{
                    "input": 10,
                    "interpolation": "CUBICSPLINE",
                    "output": 11
                },
                {
                    "input": 10,
                    "interpolation": "CUBICSPLINE",
                    "output": 12
                },
                {
                    "input": 10,
                    "interpolation": "CUBICSPLINE",
                    "output": 13
                }
            ]
        }
    ],
    "materials": [{
        "doubleSided": true,
        "name": "Material.001",
        "pbrMetallicRoughness": {
            "baseColorTexture": {
                "index": 0,
                "texCoord": 0
            },
            "metallicFactor": 0,
            "roughnessFactor": 0.5
        }
    }],
    "meshes": [{
        "name": "Curve.001",
        "primitives": [{
            "attributes": {
                "POSITION": 0,
                "NORMAL": 1
            },
            "indices": 2,
            "material": 0
        }]
    }],
    "textures": [{
        "source": 0
    }],
    "images": [{
        "bufferView": 3,
        "mimeType": "image/png",
        "name": "TextTIFF"
    }],
    "accessors": [{
            "bufferView": 0,
            "componentType": 5126,
            "count": 3756,
            "max": [
                2.2573556900024414,
                0.05000000074505806,
                1.2474411725997925
            ],
            "min": [
                0.04838669300079346, -0.05000000074505806,
                0.02769431471824646
            ],
            "type": "VEC3"
        },
        {
            "bufferView": 1,
            "componentType": 5126,
            "count": 3756,
            "type": "VEC3"
        },
        {
            "bufferView": 2,
            "componentType": 5123,
            "count": 11136,
            "type": "SCALAR"
        },
        {
            "bufferView": 4,
            "componentType": 5126,
            "count": 61,
            "max": [
                10.041666666666666
            ],
            "min": [
                0
            ],
            "type": "SCALAR"
        },
        {
            "bufferView": 5,
            "componentType": 5126,
            "count": 183,
            "type": "VEC3"
        },
        {
            "bufferView": 6,
            "componentType": 5126,
            "count": 183,
            "type": "VEC4"
        },
        {
            "bufferView": 7,
            "componentType": 5126,
            "count": 183,
            "type": "VEC3"
        },
        {
            "bufferView": 8,
            "componentType": 5126,
            "count": 183,
            "type": "VEC3"
        },
        {
            "bufferView": 9,
            "componentType": 5126,
            "count": 183,
            "type": "VEC4"
        },
        {
            "bufferView": 10,
            "componentType": 5126,
            "count": 183,
            "type": "VEC3"
        },
        {
            "bufferView": 11,
            "componentType": 5126,
            "count": 6,
            "max": [
                6.666666666666667
            ],
            "min": [
                0
            ],
            "type": "SCALAR"
        },
        {
            "bufferView": 12,
            "componentType": 5126,
            "count": 18,
            "type": "VEC3"
        },
        {
            "bufferView": 13,
            "componentType": 5126,
            "count": 18,
            "type": "VEC4"
        },
        {
            "bufferView": 14,
            "componentType": 5126,
            "count": 18,
            "type": "VEC3"
        }
    ],
    "bufferViews": [{
            "buffer": 0,
            "byteLength": 45072,
            "byteOffset": 0
        },
        {
            "buffer": 0,
            "byteLength": 45072,
            "byteOffset": 45072
        },
        {
            "buffer": 0,
            "byteLength": 22272,
            "byteOffset": 90144
        },
        {
            "buffer": 0,
            "byteLength": 986117,
            "byteOffset": 112416
        },
        {
            "buffer": 0,
            "byteLength": 244,
            "byteOffset": 1098536
        },
        {
            "buffer": 0,
            "byteLength": 2196,
            "byteOffset": 1098780
        },
        {
            "buffer": 0,
            "byteLength": 2928,
            "byteOffset": 1100976
        },
        {
            "buffer": 0,
            "byteLength": 2196,
            "byteOffset": 1103904
        },
        {
            "buffer": 0,
            "byteLength": 2196,
            "byteOffset": 1106100
        },
        {
            "buffer": 0,
            "byteLength": 2928,
            "byteOffset": 1108296
        },
        {
            "buffer": 0,
            "byteLength": 2196,
            "byteOffset": 1111224
        },
        {
            "buffer": 0,
            "byteLength": 24,
            "byteOffset": 1113420
        },
        {
            "buffer": 0,
            "byteLength": 216,
            "byteOffset": 1113444
        },
        {
            "buffer": 0,
            "byteLength": 288,
            "byteOffset": 1113660
        },
        {
            "buffer": 0,
            "byteLength": 216,
            "byteOffset": 1113948
        }
    ],
    "buffers": [{
        "byteLength": 1114164,
        "uri": "data:application/octet-stream;base64,"
    }]
}