<?xml version="1.0" encoding="UTF-8" standalone="no"?>
<!DOCTYPE svg PUBLIC "-//W3C//DTD SVG 1.1//EN" "http://www.w3.org/Graphics/SVG/1.1/DTD/svg11.dtd">
<svg width="100%" height="100%" viewBox="0 0 705 131" version="1.1" xmlns="http://www.w3.org/2000/svg" xmlns:xlink="http://www.w3.org/1999/xlink" xml:space="preserve" xmlns:serif="http://www.serif.com/" style="fill-rule:evenodd;clip-rule:evenodd;stroke-linejoin:round;stroke-miterlimit:2;">
    <g transform="matrix(1,0,0,1,-287.909,-254.565)">
        <g transform="matrix(1.72288,0,0,1.72288,187.355,-222.289)">
            <g transform="matrix(0.215992,0,0,0.215992,58.3636,266.125)">
                <path d="M320,401L45,401C20.148,401 0,380.852 0,356L0,156C0,131.148 20.148,111 45,111L320,111L320,401Z" style="fill:rgb(215,240,245);fill-rule:nonzero;"/>
                <path d="M0,256L0,356C0,380.852 20.148,401 45,401L320,401L320,256L0,256Z" style="fill:rgb(195,225,235);fill-rule:nonzero;"/>
                <path d="M467,401L290,401L290,111L467,111C491.852,111 512,131.148 512,156L512,356C512,380.852 491.852,401 467,401Z" style="fill:rgb(0,147,255);fill-rule:nonzero;"/>
                <path d="M290,256L290,401L467,401C491.852,401 512,380.852 512,356L512,256L290,256Z" style="fill:rgb(0,125,239);fill-rule:nonzero;"/>
                <path d="M436,211L336,211C327.715,211 321,204.285 321,196C321,187.715 327.715,181 336,181L436,181C444.285,181 451,187.715 451,196C451,204.285 444.285,211 436,211Z" style="fill:rgb(215,240,245);fill-rule:nonzero;"/>
                <path d="M436,271L336,271C327.715,271 321,264.285 321,256C321,247.715 327.715,241 336,241L436,241C444.285,241 451,247.715 451,256C451,264.285 444.285,271 436,271Z" style="fill:rgb(215,240,245);fill-rule:nonzero;"/>
                <path d="M336,271L436,271C444.285,271 451,264.285 451,256L321,256C321,264.285 327.715,271 336,271Z" style="fill:rgb(195,225,235);fill-rule:nonzero;"/>
                <path d="M436,331L336,331C327.715,331 321,324.285 321,316C321,307.715 327.715,301 336,301L436,301C444.285,301 451,307.715 451,316C451,324.285 444.285,331 436,331Z" style="fill:rgb(195,225,235);fill-rule:nonzero;"/>
                <g id="_565360" serif:id="565360" transform="matrix(0.413549,0.449273,-0.449273,0.413549,167.621,56.9316)">
                    <path d="M416,298.667L416,256L245.333,149.333L245.333,32C245.333,14.293 231.04,0 213.333,0C195.626,0 181.333,14.293 181.333,32L181.333,149.333L10.667,256L10.667,298.667L181.334,245.334L181.334,362.667L138.667,394.667L138.667,426.667L213.334,405.334L288,426.667L288,394.667L245.333,362.667L245.333,245.333L416,298.667Z" style="fill:rgb(0,147,255);fill-rule:nonzero;"/>
                </g>
            </g>
            <g transform="matrix(1,0,0,1,13.0468,-9.59187)">
                <g transform="matrix(1,0,0,1,173.514,348.951)">
                    <g transform="matrix(64.281,0,0,64.281,0,0)">
                        <path d="M0.319,-0.515L0.318,-0.515L0.233,-0.251L0.402,-0.251L0.319,-0.515ZM0.484,0L0.442,-0.137L0.197,-0.137L0.15,0L0.003,0L0.24,-0.664L0.401,-0.664L0.635,0L0.484,0Z" style="fill:white;fill-rule:nonzero;"/>
                    </g>
                    <g transform="matrix(64.281,0,0,64.281,41.3327,0)">
                        <path d="M0.158,-0.549L0.158,-0.372L0.332,-0.372C0.369,-0.372 0.396,-0.38 0.411,-0.397C0.426,-0.414 0.434,-0.435 0.434,-0.46C0.434,-0.486 0.427,-0.507 0.411,-0.524C0.397,-0.541 0.372,-0.549 0.337,-0.549L0.158,-0.549ZM0.41,0L0.41,-0.171C0.41,-0.203 0.403,-0.226 0.388,-0.239C0.373,-0.253 0.346,-0.26 0.306,-0.26L0.158,-0.26L0.158,0L0.023,0L0.023,-0.664L0.36,-0.664C0.391,-0.664 0.419,-0.659 0.444,-0.65C0.469,-0.64 0.49,-0.626 0.508,-0.61C0.526,-0.593 0.54,-0.572 0.55,-0.549C0.559,-0.525 0.564,-0.499 0.564,-0.472C0.564,-0.436 0.556,-0.404 0.539,-0.377C0.522,-0.349 0.497,-0.329 0.465,-0.318C0.494,-0.309 0.515,-0.294 0.528,-0.275C0.54,-0.256 0.546,-0.227 0.546,-0.188L0.546,0L0.41,0Z" style="fill:white;fill-rule:nonzero;"/>
                    </g>
                    <g transform="matrix(64.281,0,0,64.281,93.9788,0)">
                        <path d="M0.204,0L0.204,-0.548L0.004,-0.548L0.004,-0.664L0.544,-0.664L0.544,-0.548L0.343,-0.548L0.343,0L0.204,0Z" style="fill:white;fill-rule:nonzero;"/>
                    </g>
                    <g transform="matrix(64.281,0,0,64.281,129.59,0)">
                        <path d="M0.029,0L0.029,-0.492L0.159,-0.492L0.159,0L0.029,0ZM0.029,-0.551L0.029,-0.672L0.159,-0.672L0.159,-0.551L0.029,-0.551Z" style="fill:white;fill-rule:nonzero;"/>
                    </g>
                    <g transform="matrix(64.281,0,0,64.281,141.932,0)">
                        <path d="M0.469,-0.178C0.466,-0.149 0.458,-0.123 0.445,-0.1C0.432,-0.077 0.415,-0.057 0.395,-0.04C0.375,-0.023 0.352,-0.01 0.327,-0.001C0.301,0.008 0.273,0.013 0.243,0.013C0.21,0.013 0.179,0.007 0.152,-0.004C0.124,-0.015 0.1,-0.031 0.08,-0.054C0.06,-0.076 0.045,-0.103 0.034,-0.137C0.023,-0.17 0.017,-0.208 0.017,-0.252C0.017,-0.296 0.023,-0.334 0.034,-0.366C0.045,-0.398 0.06,-0.424 0.08,-0.445C0.1,-0.465 0.124,-0.48 0.153,-0.49C0.181,-0.5 0.212,-0.505 0.247,-0.505C0.279,-0.505 0.308,-0.501 0.335,-0.492C0.361,-0.483 0.384,-0.471 0.404,-0.454C0.423,-0.437 0.439,-0.417 0.45,-0.394C0.461,-0.371 0.468,-0.345 0.47,-0.316L0.339,-0.316C0.336,-0.341 0.326,-0.361 0.309,-0.376C0.292,-0.39 0.271,-0.397 0.246,-0.397C0.232,-0.397 0.219,-0.395 0.207,-0.39C0.195,-0.385 0.185,-0.378 0.175,-0.367C0.167,-0.356 0.159,-0.341 0.154,-0.323C0.149,-0.304 0.146,-0.282 0.146,-0.255C0.146,-0.201 0.156,-0.161 0.175,-0.135C0.194,-0.109 0.217,-0.096 0.242,-0.096C0.267,-0.096 0.289,-0.103 0.307,-0.117C0.325,-0.131 0.335,-0.151 0.338,-0.178L0.469,-0.178Z" style="fill:white;fill-rule:nonzero;"/>
                    </g>
                    <g transform="matrix(64.281,0,0,64.281,172.852,0)">
                        <path d="M0.328,0L0.22,-0.221L0.157,-0.156L0.157,0L0.026,0L0.026,-0.672L0.157,-0.672L0.157,-0.305L0.319,-0.492L0.478,-0.492L0.313,-0.311L0.474,0L0.328,0Z" style="fill:white;fill-rule:nonzero;"/>
                    </g>
                </g>
                <g transform="matrix(1,0,0,1,374.071,348.951)">
                    <g transform="matrix(64.281,0,0,64.281,0,0)">
                        <path d="M0.35,-0.294C0.349,-0.312 0.346,-0.328 0.341,-0.342C0.335,-0.355 0.327,-0.367 0.318,-0.376C0.309,-0.385 0.298,-0.391 0.286,-0.396C0.274,-0.4 0.262,-0.402 0.249,-0.402C0.223,-0.402 0.201,-0.393 0.182,-0.374C0.163,-0.355 0.152,-0.328 0.149,-0.294L0.35,-0.294ZM0.145,-0.212C0.147,-0.175 0.158,-0.145 0.178,-0.123C0.197,-0.101 0.223,-0.09 0.255,-0.09C0.276,-0.09 0.295,-0.095 0.312,-0.105C0.328,-0.114 0.338,-0.128 0.343,-0.145L0.477,-0.145C0.462,-0.094 0.435,-0.055 0.397,-0.028C0.359,-0.001 0.314,0.013 0.261,0.013C0.097,0.013 0.015,-0.076 0.015,-0.255C0.015,-0.293 0.02,-0.327 0.031,-0.358C0.042,-0.389 0.057,-0.415 0.078,-0.437C0.098,-0.459 0.123,-0.476 0.152,-0.488C0.181,-0.499 0.215,-0.505 0.253,-0.505C0.329,-0.505 0.387,-0.481 0.426,-0.432C0.465,-0.383 0.484,-0.31 0.484,-0.212L0.145,-0.212Z" style="fill:white;fill-rule:nonzero;"/>
                    </g>
                    <g transform="matrix(64.281,0,0,64.281,32.3333,0)">
                        <path d="M0.305,-0.324L0.426,-0.324L0.426,-0.184C0.426,-0.158 0.422,-0.133 0.414,-0.11C0.407,-0.086 0.395,-0.065 0.379,-0.047C0.362,-0.028 0.342,-0.014 0.317,-0.003C0.292,0.008 0.262,0.013 0.227,0.013C0.191,0.013 0.16,0.008 0.135,-0.003C0.11,-0.014 0.089,-0.028 0.073,-0.046C0.056,-0.064 0.044,-0.085 0.037,-0.109C0.03,-0.133 0.026,-0.158 0.026,-0.185L0.026,-0.625L0.154,-0.625L0.154,-0.492L0.426,-0.492L0.426,-0.4L0.154,-0.4L0.154,-0.198C0.154,-0.167 0.16,-0.142 0.172,-0.126C0.183,-0.109 0.202,-0.1 0.229,-0.1C0.255,-0.1 0.274,-0.108 0.286,-0.125C0.299,-0.142 0.305,-0.165 0.305,-0.196L0.305,-0.324Z" style="fill:white;fill-rule:nonzero;"/>
                    </g>
                </g>
            </g>
            <g transform="matrix(0.541722,0,0,0.541722,234.93,151.687)">
                <g transform="matrix(0.763127,0,0,0.580424,-76.8834,-5.65925)">
                    <path d="M662.325,422.997C662.325,414.491 657.072,407.584 650.602,407.584L612.396,407.584C605.926,407.584 600.673,414.491 600.673,422.997L600.673,453.823C600.673,462.33 605.926,469.236 612.396,469.236L650.602,469.236C657.072,469.236 662.325,462.33 662.325,453.823L662.325,422.997Z" style="fill:white;"/>
                </g>
                <g transform="matrix(0.392468,0,0,0.392468,62.3288,79.0257)">
                    <g transform="matrix(50,0,0,50,822.909,450.22)">
                        <path d="M0.553,-0.532L0.376,0L0.177,0L-0.001,-0.532L0.185,-0.532L0.277,-0.145L0.281,-0.145L0.372,-0.532L0.553,-0.532Z" style="fill:rgb(0,0,61);fill-rule:nonzero;"/>
                    </g>
                    <g transform="matrix(50,0,0,50,855.165,450.22)">
                        <path d="M0.22,0L0.22,-0.547L0.217,-0.547L0.041,-0.428L0.041,-0.583L0.22,-0.705L0.398,-0.705L0.398,0L0.22,0Z" style="fill:rgb(0,0,61);fill-rule:nonzero;"/>
                    </g>
                    <g transform="matrix(50,0,0,50,877.347,450.22)">
                        <path d="M0.209,-0.02C0.191,-0.003 0.17,0.006 0.145,0.006C0.12,0.006 0.099,-0.003 0.081,-0.02C0.063,-0.038 0.055,-0.059 0.055,-0.084C0.055,-0.11 0.063,-0.131 0.081,-0.149C0.099,-0.166 0.12,-0.175 0.145,-0.175C0.17,-0.175 0.191,-0.166 0.209,-0.149C0.227,-0.131 0.236,-0.11 0.236,-0.084C0.236,-0.059 0.227,-0.038 0.209,-0.02Z" style="fill:rgb(0,0,61);fill-rule:nonzero;"/>
                    </g>
                    <g transform="matrix(50,0,0,50,888.25,450.22)">
                        <path d="M0.337,0.018C0.245,0.018 0.172,-0.015 0.119,-0.082C0.065,-0.148 0.039,-0.238 0.039,-0.354C0.039,-0.469 0.065,-0.559 0.119,-0.625C0.172,-0.69 0.245,-0.723 0.337,-0.723C0.429,-0.723 0.502,-0.69 0.555,-0.625C0.609,-0.559 0.635,-0.469 0.635,-0.354C0.635,-0.239 0.609,-0.148 0.555,-0.082C0.502,-0.016 0.43,0.018 0.337,0.018ZM0.252,-0.182C0.273,-0.142 0.302,-0.122 0.337,-0.122C0.373,-0.122 0.401,-0.142 0.422,-0.182C0.443,-0.222 0.453,-0.279 0.453,-0.354C0.453,-0.428 0.443,-0.485 0.422,-0.524C0.401,-0.563 0.373,-0.583 0.337,-0.583C0.302,-0.583 0.273,-0.563 0.252,-0.524C0.231,-0.485 0.221,-0.428 0.221,-0.354C0.221,-0.279 0.231,-0.222 0.252,-0.182Z" style="fill:rgb(0,0,61);fill-rule:nonzero;"/>
                    </g>
                </g>
            </g>
        </g>
    </g>
</svg>
