<?xml version="1.0" encoding="UTF-8" standalone="no"?>
<!DOCTYPE svg PUBLIC "-//W3C//DTD SVG 1.1//EN" "http://www.w3.org/Graphics/SVG/1.1/DTD/svg11.dtd">
<svg width="100%" height="100%" viewBox="0 0 1920 310" version="1.1" xmlns="http://www.w3.org/2000/svg" xmlns:xlink="http://www.w3.org/1999/xlink" xml:space="preserve" xmlns:serif="http://www.serif.com/" style="fill-rule:evenodd;clip-rule:evenodd;stroke-linejoin:round;stroke-miterlimit:2;">
    <g transform="matrix(1,0,0,1,0,-385.175)">
        <g>
            <g transform="matrix(1.20484,0,0,1,-218.717,18.1259)">
                <path d="M1775.1,521.874C1775.1,436.424 1717.52,367.049 1646.6,367.049L310.034,367.049C239.111,367.049 181.531,436.424 181.531,521.874C181.531,607.324 239.111,676.699 310.034,676.699L1646.6,676.699C1717.52,676.699 1775.1,607.324 1775.1,521.874Z" style="fill:rgb(70,51,175);"/>
            </g>
            <g transform="matrix(3.26855,0,0,3.26855,98.4781,437.633)">
                <g transform="matrix(0.215992,0,0,0.215992,-4.44089e-15,-23.9751)">
                    <path d="M320,401L45,401C20.148,401 0,380.852 0,356L0,156C0,131.148 20.148,111 45,111L320,111L320,401Z" style="fill:rgb(215,240,245);fill-rule:nonzero;"/>
                </g>
                <g transform="matrix(0.215992,0,0,0.215992,-4.44089e-15,-23.9751)">
                    <path d="M0,256L0,356C0,380.852 20.148,401 45,401L320,401L320,256L0,256Z" style="fill:rgb(195,225,235);fill-rule:nonzero;"/>
                </g>
                <g transform="matrix(0.215992,0,0,0.215992,-4.44089e-15,-23.9751)">
                    <path d="M467,401L290,401L290,111L467,111C491.852,111 512,131.148 512,156L512,356C512,380.852 491.852,401 467,401Z" style="fill:rgb(0,147,255);fill-rule:nonzero;"/>
                </g>
                <g transform="matrix(0.215992,0,0,0.215992,-4.44089e-15,-23.9751)">
                    <path d="M290,256L290,401L467,401C491.852,401 512,380.852 512,356L512,256L290,256Z" style="fill:rgb(0,125,239);fill-rule:nonzero;"/>
                </g>
                <g transform="matrix(0.215992,0,0,0.215992,-4.44089e-15,-23.9751)">
                    <path d="M436,211L336,211C327.715,211 321,204.285 321,196C321,187.715 327.715,181 336,181L436,181C444.285,181 451,187.715 451,196C451,204.285 444.285,211 436,211Z" style="fill:rgb(215,240,245);fill-rule:nonzero;"/>
                </g>
                <g transform="matrix(0.215992,0,0,0.215992,-4.44089e-15,-23.9751)">
                    <path d="M436,271L336,271C327.715,271 321,264.285 321,256C321,247.715 327.715,241 336,241L436,241C444.285,241 451,247.715 451,256C451,264.285 444.285,271 436,271Z" style="fill:rgb(215,240,245);fill-rule:nonzero;"/>
                </g>
                <g transform="matrix(0.215992,0,0,0.215992,-4.44089e-15,-23.9751)">
                    <path d="M336,271L436,271C444.285,271 451,264.285 451,256L321,256C321,264.285 327.715,271 336,271Z" style="fill:rgb(195,225,235);fill-rule:nonzero;"/>
                </g>
                <g transform="matrix(0.215992,0,0,0.215992,-4.44089e-15,-23.9751)">
                    <path d="M436,331L336,331C327.715,331 321,324.285 321,316C321,307.715 327.715,301 336,301L436,301C444.285,301 451,307.715 451,316C451,324.285 444.285,331 436,331Z" style="fill:rgb(195,225,235);fill-rule:nonzero;"/>
                </g>
                <g id="_565360" serif:id="565360" transform="matrix(0.0893233,0.0970394,-0.0970394,0.0893233,36.2048,-11.6783)">
                    <path d="M416,298.667L416,256L245.333,149.333L245.333,32C245.333,14.293 231.04,0 213.333,0C195.626,0 181.333,14.293 181.333,32L181.333,149.333L10.667,256L10.667,298.667L181.334,245.334L181.334,362.667L138.667,394.667L138.667,426.667L213.334,405.334L288,426.667L288,394.667L245.333,362.667L245.333,245.333L416,298.667Z" style="fill:rgb(0,147,255);fill-rule:nonzero;"/>
                </g>
            </g>
            <g transform="matrix(0.879642,0,0,0.901017,-97.6724,72.8549)">
                <g transform="matrix(285.819,0,0,285.819,700.9,624.241)">
                    <path d="M0.544,-0.15L0.219,-0.15L0.157,0L-0.009,0L0.303,-0.7L0.463,-0.7L0.776,0L0.606,0L0.544,-0.15ZM0.493,-0.273L0.382,-0.541L0.271,-0.273L0.493,-0.273Z" style="fill:rgb(195,225,235);fill-rule:nonzero;"/>
                </g>
                <g transform="matrix(285.819,0,0,285.819,919.837,624.241)">
                    <path d="M0.529,0L0.394,-0.195L0.386,-0.195L0.245,-0.195L0.245,0L0.083,0L0.083,-0.7L0.386,-0.7C0.448,-0.7 0.502,-0.69 0.548,-0.669C0.593,-0.648 0.628,-0.619 0.653,-0.581C0.678,-0.543 0.69,-0.498 0.69,-0.446C0.69,-0.394 0.678,-0.349 0.653,-0.312C0.627,-0.274 0.592,-0.245 0.546,-0.225L0.703,0L0.529,0ZM0.526,-0.446C0.526,-0.485 0.513,-0.516 0.488,-0.537C0.463,-0.558 0.426,-0.568 0.377,-0.568L0.245,-0.568L0.245,-0.324L0.377,-0.324C0.426,-0.324 0.463,-0.335 0.488,-0.356C0.513,-0.377 0.526,-0.407 0.526,-0.446Z" style="fill:rgb(195,225,235);fill-rule:nonzero;"/>
                </g>
                <g transform="matrix(285.819,0,0,285.819,1210.8,624.241)">
                    <path d="M0.228,-0.568L0.004,-0.568L0.004,-0.7L0.614,-0.7L0.614,-0.568L0.39,-0.568L0.39,0L0.228,0L0.228,-0.568Z" style="fill:rgb(195,225,235);fill-rule:nonzero;"/>
                </g>
                <g transform="matrix(285.819,0,0,285.819,1384.01,624.241)">
                    <path d="M0.072,-0.538L0.228,-0.538L0.228,0L0.072,0L0.072,-0.538ZM0.15,-0.613C0.121,-0.613 0.098,-0.621 0.08,-0.638C0.062,-0.655 0.053,-0.675 0.053,-0.7C0.053,-0.725 0.062,-0.745 0.08,-0.762C0.098,-0.779 0.121,-0.787 0.15,-0.787C0.179,-0.787 0.202,-0.779 0.22,-0.763C0.238,-0.747 0.247,-0.727 0.247,-0.703C0.247,-0.677 0.238,-0.656 0.22,-0.639C0.202,-0.622 0.179,-0.613 0.15,-0.613Z" style="fill:rgb(195,225,235);fill-rule:nonzero;"/>
                </g>
                <g transform="matrix(285.819,0,0,285.819,1470.04,624.241)">
                    <path d="M0.332,0.008C0.275,0.008 0.223,-0.004 0.178,-0.028C0.132,-0.051 0.096,-0.084 0.07,-0.126C0.045,-0.168 0.032,-0.216 0.032,-0.269C0.032,-0.322 0.045,-0.37 0.07,-0.412C0.096,-0.454 0.132,-0.487 0.178,-0.51C0.223,-0.534 0.275,-0.546 0.332,-0.546C0.389,-0.546 0.438,-0.534 0.481,-0.51C0.523,-0.487 0.554,-0.453 0.573,-0.409L0.452,-0.344C0.424,-0.393 0.384,-0.418 0.331,-0.418C0.29,-0.418 0.257,-0.405 0.23,-0.378C0.203,-0.351 0.19,-0.315 0.19,-0.269C0.19,-0.223 0.203,-0.187 0.23,-0.16C0.257,-0.133 0.29,-0.12 0.331,-0.12C0.384,-0.12 0.425,-0.145 0.452,-0.194L0.573,-0.128C0.554,-0.085 0.523,-0.052 0.481,-0.028C0.438,-0.004 0.389,0.008 0.332,0.008Z" style="fill:rgb(195,225,235);fill-rule:nonzero;"/>
                </g>
                <g transform="matrix(285.819,0,0,285.819,1637.81,624.241)">
                    <path d="M0.303,-0.211L0.228,-0.137L0.228,0L0.072,0L0.072,-0.742L0.228,-0.742L0.228,-0.322L0.456,-0.538L0.642,-0.538L0.418,-0.31L0.662,0L0.473,0L0.303,-0.211Z" style="fill:rgb(195,225,235);fill-rule:nonzero;"/>
                </g>
                <g transform="matrix(285.819,0,0,285.819,1819.88,624.241)">
                    <path d="M0.599,-0.267C0.599,-0.265 0.598,-0.251 0.596,-0.225L0.189,-0.225C0.196,-0.192 0.214,-0.165 0.241,-0.146C0.268,-0.127 0.302,-0.117 0.343,-0.117C0.371,-0.117 0.396,-0.121 0.418,-0.13C0.439,-0.138 0.459,-0.151 0.478,-0.169L0.561,-0.079C0.51,-0.021 0.436,0.008 0.339,0.008C0.278,0.008 0.225,-0.004 0.178,-0.028C0.131,-0.051 0.095,-0.084 0.07,-0.126C0.045,-0.168 0.032,-0.216 0.032,-0.269C0.032,-0.322 0.045,-0.369 0.07,-0.411C0.095,-0.454 0.129,-0.487 0.172,-0.51C0.216,-0.534 0.265,-0.546 0.319,-0.546C0.372,-0.546 0.419,-0.535 0.462,-0.512C0.505,-0.489 0.538,-0.457 0.563,-0.414C0.587,-0.372 0.599,-0.323 0.599,-0.267ZM0.32,-0.428C0.285,-0.428 0.255,-0.418 0.231,-0.398C0.207,-0.378 0.192,-0.351 0.187,-0.316L0.452,-0.316C0.447,-0.35 0.432,-0.377 0.408,-0.398C0.384,-0.418 0.355,-0.428 0.32,-0.428Z" style="fill:rgb(195,225,235);fill-rule:nonzero;"/>
                </g>
                <g transform="matrix(285.819,0,0,285.819,2000.23,624.241)">
                    <path d="M0.419,-0.026C0.404,-0.015 0.385,-0.006 0.363,-0.001C0.34,0.005 0.317,0.008 0.292,0.008C0.228,0.008 0.179,-0.008 0.143,-0.041C0.109,-0.074 0.091,-0.122 0.091,-0.185L0.091,-0.406L0.008,-0.406L0.008,-0.526L0.091,-0.526L0.091,-0.657L0.247,-0.657L0.247,-0.526L0.381,-0.526L0.381,-0.406L0.247,-0.406L0.247,-0.187C0.247,-0.164 0.253,-0.147 0.265,-0.135C0.276,-0.122 0.293,-0.116 0.314,-0.116C0.339,-0.116 0.36,-0.123 0.377,-0.136L0.419,-0.026Z" style="fill:rgb(195,225,235);fill-rule:nonzero;"/>
                </g>
            </g>
        </g>
    </g>
</svg>
