<?xml version="1.0" encoding="UTF-8" standalone="no"?>
<!DOCTYPE svg PUBLIC "-//W3C//DTD SVG 1.1//EN" "http://www.w3.org/Graphics/SVG/1.1/DTD/svg11.dtd">
<svg width="100%" height="100%" viewBox="0 0 394 80" version="1.1" xmlns="http://www.w3.org/2000/svg" xmlns:xlink="http://www.w3.org/1999/xlink" xml:space="preserve" xmlns:serif="http://www.serif.com/" style="fill-rule:evenodd;clip-rule:evenodd;stroke-linejoin:round;stroke-miterlimit:2;">
    <g transform="matrix(1,0,0,1,-53.1649,-278.421)">
        <g>
            <g transform="matrix(0.215992,0,0,0.215992,58.3636,266.125)">
                <path d="M320,401L45,401C20.148,401 0,380.852 0,356L0,156C0,131.148 20.148,111 45,111L320,111L320,401Z" style="fill:rgb(215,240,245);fill-rule:nonzero;"/>
                <path d="M0,256L0,356C0,380.852 20.148,401 45,401L320,401L320,256L0,256Z" style="fill:rgb(195,225,235);fill-rule:nonzero;"/>
                <path d="M467,401L290,401L290,111L467,111C491.852,111 512,131.148 512,156L512,356C512,380.852 491.852,401 467,401Z" style="fill:rgb(0,147,255);fill-rule:nonzero;"/>
                <path d="M290,256L290,401L467,401C491.852,401 512,380.852 512,356L512,256L290,256Z" style="fill:rgb(0,125,239);fill-rule:nonzero;"/>
                <path d="M436,211L336,211C327.715,211 321,204.285 321,196C321,187.715 327.715,181 336,181L436,181C444.285,181 451,187.715 451,196C451,204.285 444.285,211 436,211Z" style="fill:rgb(215,240,245);fill-rule:nonzero;"/>
                <path d="M436,271L336,271C327.715,271 321,264.285 321,256C321,247.715 327.715,241 336,241L436,241C444.285,241 451,247.715 451,256C451,264.285 444.285,271 436,271Z" style="fill:rgb(215,240,245);fill-rule:nonzero;"/>
                <path d="M336,271L436,271C444.285,271 451,264.285 451,256L321,256C321,264.285 327.715,271 336,271Z" style="fill:rgb(195,225,235);fill-rule:nonzero;"/>
                <path d="M436,331L336,331C327.715,331 321,324.285 321,316C321,307.715 327.715,301 336,301L436,301C444.285,301 451,307.715 451,316C451,324.285 444.285,331 436,331Z" style="fill:rgb(195,225,235);fill-rule:nonzero;"/>
                <g id="_565360" serif:id="565360" transform="matrix(0.413549,0.449273,-0.449273,0.413549,160,241)">
                    <g transform="matrix(1,0,0,1,-213.333,-213.333)">
                        <clipPath id="_clip1">
                            <rect x="0" y="0" width="426.667" height="426.667"/>
                        </clipPath>
                        <g clip-path="url(#_clip1)">
                            <path d="M416,298.667L416,256L245.333,149.333L245.333,32C245.333,14.293 231.04,0 213.333,0C195.626,0 181.333,14.293 181.333,32L181.333,149.333L10.667,256L10.667,298.667L181.334,245.334L181.334,362.667L138.667,394.667L138.667,426.667L213.334,405.334L288,426.667L288,394.667L245.333,362.667L245.333,245.333L416,298.667Z" style="fill:rgb(0,147,255);fill-rule:nonzero;"/>
                        </g>
                    </g>
                </g>
            </g>
            <g transform="matrix(1,0,0,1,13.0468,-9.59187)">
                <text x="173.514px" y="348.951px" style="font-family:'CoolveticaRg-Regular', 'Coolvetica', sans-serif;font-size:64.281px;fill:white;">AR Tick<tspan x="374.071px 406.405px " y="348.951px 348.951px ">et</tspan></text>
            </g>
        </g>
    </g>
</svg>
